<?xml version="1.0" encoding="utf-8"?>
<!-- Generator: Adobe Illustrator 25.4.1, SVG Export Plug-In . SVG Version: 6.00 Build 0)  -->
<svg version="1.0" id="katman_1" xmlns="http://www.w3.org/2000/svg" xmlns:xlink="http://www.w3.org/1999/xlink" x="0px" y="0px"
	 viewBox="0 0 2011 1401.2" style="enable-background:new 0 0 2011 1401.2;" xml:space="preserve">
<style type="text/css">
	.st0{fill-rule:evenodd;clip-rule:evenodd;fill:#5AA144;}
	.st1{fill-rule:evenodd;clip-rule:evenodd;fill:#6A6A67;}
	.st2{fill-rule:evenodd;clip-rule:evenodd;fill:#FFFFFF;filter:url(#Adobe_OpacityMaskFilter);}
	.st3{mask:url(#a_00000103983416578947190260000017594437130505093808_);fill-rule:evenodd;clip-rule:evenodd;fill:#6A6A67;}
	
		.st4{fill-rule:evenodd;clip-rule:evenodd;fill:#FFFFFF;filter:url(#Adobe_OpacityMaskFilter_00000076579258739946424210000017878983264746639286_);}
	.st5{mask:url(#a_00000134250093486176869220000001467788374646213789_);fill-rule:evenodd;clip-rule:evenodd;fill:#5AA144;}
</style>
<g>
	<g>
		<path class="st0" d="M722,702.6c-0.1,18.9-0.1,28.4,0,28.4h0.2c1.1,0.3,2.4,0.6,3.8,0.9c1.4,0.3,3.8,0.6,7.2,1
			c3.4,0.4,6.6,0.4,9.6,0.2c2.9-0.2,6.2-0.9,9.9-1.9c3.7-1.1,6.7-2.7,9.2-4.8c2.5-2.2,4.6-5.2,6.3-9.3c1.7-4,2.6-8.8,2.6-14.2
			c0-5.7-0.7-10.7-2.1-15c-1.4-4.2-3.3-7.5-5.6-9.9c-2.3-2.4-5-4.3-8.2-5.7c-3.2-1.4-6.2-2.3-9.1-2.6c-2.9-0.3-6.1-0.3-9.3-0.1
			c-3.3,0.2-6.1,0.5-8.3,1c-2.2,0.4-4.3,0.9-6.1,1.5L722,702.6z M722,641l-12.9,14.9c2.9-1,5.5-2.4,7.8-4.3c2.4-1.9,4.2-3.4,5.6-4.6
			c1.4-1.2,4-2.3,7.8-3.3c3.9-1,9-1.5,15.3-1.5c5.7,0,11.2,0.6,16.5,1.7c5.3,1.2,10.5,3.2,15.7,6c5.2,2.9,9.6,6.5,13.4,10.8
			c3.8,4.3,6.8,9.9,9.1,16.7c2.3,6.8,3.4,14.5,3.4,23.1c0,22.3-4.8,38.2-14.4,47.7c-9.6,9.6-25.4,14.3-47.5,14.3
			c-7,0-13.3-0.4-18.9-1.1c-5.6-0.7-10-1.5-13.3-2.4c-3.3-0.9-6.3-2-9-3.6c-2.7-1.5-4.6-2.7-5.6-3.7c-1-0.9-2.1-2.2-3.3-3.7
			c-1.2-1.5-1.9-2.3-2-2.5V618.7c0-5.7,0.7-10.1,2-13.1c1.4-3,3.3-4.9,5.7-5.7c2.4-0.8,5-1.2,7.6-1.2c2.6,0,5.6-0.2,8.8-0.6
			c3.2-0.4,5.9-1.4,8.1-3L722,641z"/>
		<path class="st0" d="M856.2,697c2.4-1.7,6.4-2.9,11.9-3.4c5.5-0.6,10.7-0.9,15.5-1c4.8-0.1,9.1-1.1,12.8-3c3.7-1.9,5.5-5,5.4-9.2
			c0-3.7-2.9-6.8-8.8-9.3c-8.2-3.4-16.1-3.7-23.9-0.9C858.4,674.2,854.1,683.1,856.2,697z M857.3,719.7c0,4.5,2.2,7.8,6.7,10
			c4.4,2.2,10.1,3.4,16.9,3.4c6.8,0.1,13.5-0.2,20-0.9c6.5-0.6,12.7-1.4,18.5-2.3c5.8-0.9,9.1-1.3,10-1.3
			c0.6,12.5-1.9,21.3-7.4,26.5c-5.5,5.2-16.6,7.8-33.2,7.8c-22.9,0-39.8-4.7-50.5-14c-10.7-9.3-16.1-25.5-16.1-48.5
			c0-11.5,1.5-21.2,4.4-29.2c2.9-8,7.2-14,12.9-18.2c5.7-4.2,12-7.1,18.9-8.8c6.9-1.7,15.1-2.6,24.4-2.6c17.8,0,30.8,3.8,39.2,11.3
			c8.4,7.5,12.6,19.6,12.6,36.1c0,6.3-1.2,11.4-3.7,15.2c-2.4,3.8-5.6,6.4-9.6,7.6c-3.9,1.3-8.7,2.2-14.2,2.8
			c-5.5,0.6-11,0.8-16.3,0.5c-5.4-0.2-11.2,0-17.4,0.8C867.1,716.7,861.7,717.9,857.3,719.7L857.3,719.7z"/>
		<path class="st0" d="M1021,733c2,6.3,2.3,12.1,0.9,17.4c-1.4,5.3-3.9,8.8-7.3,10.6c-7.5,2.3-14.7,3-21.8,2
			c-7.1-0.9-13.4-2.9-18.9-5.9c-5.5-3-10-7.4-13.4-13.1c-3.4-5.7-5.2-12.3-5.2-19.6v-92.6c-0.1-4.4,0.6-8.1,2.1-11.1
			c1.6-2.9,3.9-5.1,7.1-6.4c3.1-1.3,6.5-2.1,10.1-2.5c3.6-0.4,7.9-0.4,12.9-0.1V643h37v1.6c0,0.6-0.1,2-0.4,4
			c-0.3,2-0.7,3.9-1.3,5.8c-0.6,1.9-1.5,3.9-2.9,6.1c-1.4,2.2-3,4.1-4.8,5.7c-1.9,1.6-4.4,2.9-7.5,4c-3.2,1.1-6.7,1.6-10.5,1.6
			c-3.4,0-6.6,0.1-9.5,0.2l0.2,49.7c-0.1,3.9,0.6,6.9,2.4,8.9c1.7,2.1,4,3.3,7,3.7c2.9,0.4,5.9,0.4,8.8,0.2c2.9-0.2,5.9-0.5,9-1
			C1017.9,733.2,1020,733,1021,733"/>
		<path class="st0" d="M1108.8,733c2,6.3,2.3,12.1,0.9,17.4c-1.4,5.3-3.9,8.8-7.3,10.6c-7.5,2.3-14.7,3-21.8,2
			c-7.1-0.9-13.4-2.9-18.9-5.9c-5.5-3-10-7.4-13.4-13.1c-3.4-5.7-5.2-12.3-5.2-19.6v-92.6c-0.1-4.4,0.6-8.1,2.1-11.1
			c1.6-2.9,3.9-5.1,7.1-6.4c3.1-1.3,6.5-2.1,10.1-2.5c3.6-0.4,7.9-0.4,12.9-0.1V643h37v1.6c0,0.6-0.1,2-0.4,4
			c-0.3,2-0.7,3.9-1.3,5.8c-0.6,1.9-1.5,3.9-2.9,6.1c-1.4,2.2-3,4.1-4.8,5.7c-1.9,1.6-4.4,2.9-7.5,4c-3.2,1.1-6.7,1.6-10.5,1.6
			c-3.4,0-6.6,0.1-9.5,0.2l0.2,49.7c-0.1,3.9,0.6,6.9,2.4,8.9c1.7,2.1,4,3.3,7,3.7c2.9,0.4,5.9,0.4,8.8,0.2c2.9-0.2,5.9-0.5,9-1
			C1105.8,733.2,1107.8,733,1108.8,733"/>
		<path class="st0" d="M1160,697c2.4-1.7,6.4-2.9,11.9-3.4c5.5-0.6,10.7-0.9,15.5-1c4.8-0.1,9.1-1.1,12.8-3c3.7-1.9,5.5-5,5.4-9.2
			c0-3.7-2.9-6.8-8.8-9.3c-8.2-3.4-16.1-3.7-23.9-0.9C1162.1,674.2,1157.8,683.1,1160,697L1160,697z M1161.1,719.7
			c0,4.5,2.2,7.8,6.7,10c4.4,2.2,10.1,3.4,16.9,3.4c6.8,0.1,13.5-0.2,20-0.9c6.5-0.6,12.7-1.4,18.5-2.3c5.8-0.9,9.1-1.3,10-1.3
			c0.6,12.5-1.9,21.3-7.4,26.5c-5.5,5.2-16.6,7.8-33.2,7.8c-22.9,0-39.8-4.7-50.5-14c-10.7-9.3-16.1-25.5-16.1-48.5
			c0-11.5,1.5-21.2,4.4-29.2c2.9-8,7.2-14,12.9-18.2c5.7-4.2,12-7.1,18.9-8.8c6.9-1.7,15.1-2.6,24.4-2.6c17.8,0,30.8,3.8,39.2,11.3
			c8.4,7.5,12.6,19.6,12.6,36.1c0,6.3-1.2,11.4-3.7,15.2c-2.4,3.8-5.6,6.4-9.6,7.6c-3.9,1.3-8.7,2.2-14.2,2.8
			c-5.5,0.6-11,0.8-16.3,0.5c-5.4-0.2-11.2,0-17.4,0.8C1170.8,716.7,1165.5,717.9,1161.1,719.7L1161.1,719.7z"/>
		<path class="st0" d="M1340.3,641.5c-0.1,0.3-0.1,1.8,0.1,4.5c0.2,2.7,0.2,5.3-0.1,7.9c-0.3,2.5-0.9,5.2-1.7,8.1
			c-0.9,2.9-2.6,5.2-5.3,6.9c-2.7,1.7-6.1,2.6-10.2,2.6c-6,0-10.7,0.2-14,0.6c-3.3,0.4-6.2,1.5-8.8,3.2c-2.6,1.7-4.3,4.2-5.2,7.3
			c-0.9,3.2-1.3,7.5-1.3,12.9v68.9c-2.6-1.9-6-3.3-10.2-4.4c-4.2-1.1-7.8-1.9-10.7-2.5c-2.9-0.6-5.6-2.3-7.8-5.1
			c-2.3-2.8-3.4-6.9-3.4-12.2v-57.7c0-0.9,0-2,0.1-3.6c0.1-1.5,0.3-3.6,0.8-6.2c0.4-2.7,1.1-5.3,2.1-8c1-2.7,2.5-5.4,4.5-8.3
			c2-2.9,4.4-5.4,7.3-7.5c2.9-2.2,6.6-3.9,11.1-5.4c4.5-1.4,9.6-2.2,15.2-2.2h21.3h7.5h2.5H1340.3z"/>
	</g>
	<path class="st1" d="M1396.1,645.6c7-2.9,18.8-4.3,35.2-4.3c8,0,14.9,1.4,20.6,4.1c5.7,2.7,9.9,5.9,12.5,9.4
		c2.6,3.5,4.5,7.5,5.9,12.1c1.4,4.5,2.1,7.9,2.3,10.1c0.1,2.2,0.1,4.1,0,5.7V761c-21.5,2.9-32.2-3.8-32.2-20v-23.7
		c0.1-21.4-0.9-34.4-3-39.1c-2.1-4.7-8.9-7.1-20.2-7.4c-7,0-14,1.3-21.1,3.9V741c0.3,8.6-2.4,14.2-8.1,16.9
		c-5.7,2.7-13.7,3.7-24.2,3.1V593c2.6,1.9,6,3,10.2,3.3c4.2,0.4,7.8,0.5,10.7,0.5c2.9,0,5.5,1.5,7.8,4.6c2.3,3.1,3.4,8.1,3.4,15.2
		V645.6z"/>
	<path class="st1" d="M1530.8,697c2.4-1.7,6.4-2.9,11.9-3.4c5.5-0.6,10.7-0.9,15.5-1c4.8-0.1,9.1-1.1,12.8-3c3.7-1.9,5.5-5,5.4-9.2
		c0-3.7-2.9-6.8-8.8-9.3c-8.2-3.4-16.1-3.7-23.9-0.9C1533,674.2,1528.7,683.1,1530.8,697L1530.8,697z M1531.9,719.7
		c0,4.5,2.2,7.8,6.7,10c4.4,2.2,10.1,3.4,16.9,3.4c6.8,0.1,13.5-0.2,20-0.9c6.5-0.6,12.7-1.4,18.5-2.3c5.8-0.9,9.1-1.3,10-1.3
		c0.6,12.5-1.9,21.3-7.4,26.5c-5.5,5.2-16.6,7.8-33.2,7.8c-22.9,0-39.8-4.7-50.5-14c-10.8-9.3-16.1-25.5-16.1-48.5
		c0-11.5,1.5-21.2,4.4-29.2c2.9-8,7.2-14,12.9-18.2c5.7-4.2,12-7.1,18.9-8.8c6.9-1.7,15.1-2.6,24.4-2.6c17.8,0,30.8,3.8,39.2,11.3
		c8.4,7.5,12.6,19.6,12.6,36.1c0,6.3-1.2,11.4-3.6,15.2c-2.4,3.8-5.6,6.4-9.6,7.6c-3.9,1.3-8.7,2.2-14.2,2.8
		c-5.5,0.6-11,0.8-16.3,0.5c-5.4-0.2-11.2,0-17.4,0.8C1541.7,716.7,1536.4,717.9,1531.9,719.7L1531.9,719.7z"/>
	<path class="st1" d="M1665.8,741c0.3,8.6-2.4,14.2-8.1,16.9c-5.7,2.7-13.7,3.7-24.2,3.1V593c2.6,1.9,6,3,10.2,3.3
		c4.2,0.4,7.8,0.5,10.7,0.5s5.5,1.5,7.8,4.6c2.3,3.1,3.4,8.1,3.4,15.2V741z"/>
	<defs>
		<filter id="Adobe_OpacityMaskFilter" filterUnits="userSpaceOnUse" x="1691.3" y="641" width="114.1" height="167.5">
			<feColorMatrix  type="matrix" values="1 0 0 0 0  0 1 0 0 0  0 0 1 0 0  0 0 0 1 0"/>
		</filter>
	</defs>
	
		<mask maskUnits="userSpaceOnUse" x="1691.3" y="641" width="114.1" height="167.5" id="a_00000103983416578947190260000017594437130505093808_">
		<path class="st2" d="M205.6,593h1599.9v215.6H205.6L205.6,593z"/>
	</mask>
	<path class="st3" d="M1723.5,700.9v30.6c2.3,0.7,4.8,1.3,7.4,1.7c2.6,0.4,6,0.8,10,1.1c4,0.3,7.7-0.1,11.2-1.3
		c3.4-1.1,6.7-2.8,9.9-5c3.1-2.2,5.6-5.6,7.5-10.3c1.9-4.7,2.8-10.4,2.8-17c0-5.5-0.9-10.2-2.7-14.2c-1.8-4-3.9-7.1-6.2-9.3
		s-5.5-3.8-9.4-4.8c-3.9-1.1-7.1-1.7-9.7-1.9c-2.6-0.2-5.8-0.1-9.7,0.3c-3.9,0.4-6.2,0.7-7.1,0.9c-0.9,0.1-2.2,0.4-3.9,0.9h-0.2
		C1723.4,672.5,1723.4,682,1723.5,700.9z M1723.5,808.6c-2.6-1.9-6-3-10.2-3.3c-4.2-0.4-7.8-0.5-10.7-0.5c-2.9,0-5.6-1.5-7.8-4.6
		c-2.3-3.1-3.4-8.1-3.4-15.2V657.8c0.1-0.1,0.8-1,2-2.5c1.2-1.5,2.3-2.7,3.3-3.6c1-0.9,2.9-2.1,5.6-3.7c2.7-1.6,5.7-2.8,9-3.7
		c3.3-0.9,7.7-1.7,13.3-2.4c5.6-0.7,11.9-1.1,18.9-1.1c22.1,0,37.9,4.8,47.5,14.3c9.6,9.6,14.4,25.4,14.4,47.7
		c0,10.8-1.7,20.1-5.2,28c-3.4,7.9-8.1,14-13.9,18.2c-5.8,4.2-12,7.3-18.5,9.3c-6.5,1.9-13.4,2.9-20.7,2.9c-9.9,0-17.8-1-23.6-3
		L1723.5,808.6z"/>
	<defs>
		
			<filter id="Adobe_OpacityMaskFilter_00000014607841459747102390000002229308742119548072_" filterUnits="userSpaceOnUse" x="205.5" y="599" width="425.6" height="207.9">
			<feColorMatrix  type="matrix" values="1 0 0 0 0  0 1 0 0 0  0 0 1 0 0  0 0 0 1 0"/>
		</filter>
	</defs>
	
		<mask maskUnits="userSpaceOnUse" x="205.5" y="599" width="425.6" height="207.9" id="a_00000134250093486176869220000001467788374646213789_">
		
			<path style="fill-rule:evenodd;clip-rule:evenodd;fill:#FFFFFF;filter:url(#Adobe_OpacityMaskFilter_00000014607841459747102390000002229308742119548072_);" d="
			M205.6,593h1599.9v215.6H205.6L205.6,593z"/>
	</mask>
	<path class="st5" d="M631.1,647.7c0,0-75.8-49.2-142.4-27.3c-22.3,7.3-40.7,21.7-55.4,37.5c-8.2,8.9-17.7,29.3-46.2,40.4
		c-6.3,2.4-13.3,5-22.2,6.1c-12.9,1.6-21.3,4.7-32.1,7.5c-4.5,1.2-13.3,3.7-14-1.9c-0.4-3.8,3.6-4.8,7-5.8c7.3-2.1,12.5-4,19.7-6.4
		c2.5-0.9,9-1.9,8.2-4.5c-0.5-1.8-4.8-0.7-6.8-0.3c-12.6,2.5-24.1,4.6-36.9,6.6c-5.2,0.8-11.4,1.8-12.3-2.8
		c-1.3-6.7,7.1-6.9,12.9-7.9c10.7-1.9,19.2-3.7,29.6-5.8c1.6-0.3,3.9-0.4,4.6-2.2c-1.9-1.3-4.6-0.5-6.8-0.1c-13.9,2-28.5,4.2-42,7
		c-4.5,0.9-9.1,1.3-10-2.7c-1.6-6.9,7.3-8,13-9.4c12.2-3,22.5-3.9,36.2-6.2c1.9-0.3,6.1-0.8,6.1-2.3c0-2.2-6.6-1.5-8.8-1.5
		c-10,0-17.3,0.8-28.3,1.9c-6,0.6-13.7,2.5-14.4-2.8c-1.1-8.4,15.4-7.5,22.6-8.3c13.6-1.6,26.6-2.1,39.1-5.3
		c5.7-1.5,13.4-3.4,13.9-7.4c0.5-4.1-5.2-8.7-7.1-10c-3.1-2-6.9-3.4-10.1-5.8c-3.1-2.4-6.3-5.1-7.9-8.2c-1.8-3.4-2.4-11.1,2.6-11.4
		c2-0.1,6.6,3.8,8.1,4.8c2.9,1.9,5.5,3.3,7.9,5c4.4,3.2,7.4,6.7,11.8,8.9c3.3,1.6,6.6,2.8,9.8,4.5c3.1,1.6,6.2,3.2,9.3,5.1
		c3.2,1.9,6.1,6.3,10.3,8.6c23.2,12.2,35.5-10.7,29.9-13.6c-29.1-15.1-76.9-35-105.2-32.1c-69.7,7.1-119.1,82.8-119.1,82.8
		s63.6,64.3,133.3,57.2c35.9-3.6,66.4-25.5,87.5-45.8c-0.5-0.7,19.7-24.7,44.3-33.4c12.2-4.3,19.8-9.2,29.8-14.2
		c4.1-2.1,12.2-6.5,14.1-1.1c1.2,3.6-2.5,5.5-5.6,7.2c-6.7,3.6-11.4,6.5-17.9,10.5c-2.2,1.4-8.4,3.8-7.1,6.2
		c0.9,1.6,4.8-0.3,6.7-1.2c11.8-5.1,22.6-9.7,34.6-14.4c4.9-1.9,10.8-4.2,12.6,0.1c2.7,6.3-5.5,8.3-11,10.5
		c-10.1,4.1-18,7.8-27.7,12c-1.5,0.7-3.7,1.2-4,3.1c2.1,0.8,4.6-0.5,6.7-1.4c13.1-5,27-10.2,39.5-15.8c4.2-1.9,8.6-3.2,10.4,0.5
		c3.1,6.4-5.4,9.4-10.7,12c-11.3,5.5-21.1,8.7-34,13.8c-1.8,0.7-5.8,2-5.5,3.6c0.5,2.1,6.8,0,8.9-0.4c9.8-2.1,16.7-4.5,27.3-7.9
		c5.7-1.9,12.8-5.4,14.7-0.3c2.9,7.9-13.5,10.7-20.3,13c-13,4.5-25.5,7.7-37.1,13.5c-5.3,2.7-12.4,6.2-12,10.2
		c0.4,4.2,6.9,7.4,9.1,8.2c3.4,1.3,7.5,1.8,11.1,3.5c3.5,1.6,7.3,3.7,9.5,6.3c2.5,2.9,4.7,10.4-0.2,11.7c-1.9,0.5-7.2-2.3-8.9-2.9
		c-3.3-1.2-6.1-2-8.8-3.2c-5-2.1-8.6-5-13.4-6.2c-3.6-0.9-7-1.3-10.5-2.3c-3.4-0.9-6.8-1.8-10.1-3c-3.5-1.2-8.1-3.3-11.9-6.2
		c-1.3-1-3.8-2.8-6.7-2c-18.7,0.4-37.2,10.7-47.6,28.8c-10.2,17.6-10.2,38.2-1.9,54.5c-1.7-12.3,0.5-25.5,7.4-37.3
		c6.5-11.3,16.1-19.5,27-24.3c28.1,11.1,68,21,105.1,8.8C599,732.3,631.1,647.7,631.1,647.7"/>
</g>
</svg>
